<?xml version="1.0" encoding="UTF-8"?>
<svg version="1.1" xmlns="http://www.w3.org/2000/svg" width="50" height="50">
<path d="M0 0 C4.32531629 2.9448962 5.80771012 6.11492574 6.78515625 11.0859375 C7.46626637 17.15400945 4.25989074 22.11016389 1 27 C13.87 27.495 13.87 27.495 27 28 C27 34.6 27 41.2 27 48 C10.96468704 48.09932403 -4.99797356 48.11595701 -21 47 C-21.16249454 44.58063683 -21.28097817 42.17218141 -21.375 39.75 C-21.42527344 39.06808594 -21.47554687 38.38617188 -21.52734375 37.68359375 C-21.5859375 35.671875 -21.5859375 35.671875 -21 32 C-17.6200075 29.14000635 -14.15920321 27.46795408 -10 26 C-10.61875 25.2575 -11.2375 24.515 -11.875 23.75 C-16.03204272 18.37029765 -16.03204272 18.37029765 -15.93359375 14.16015625 C-15.17839006 9.44459303 -14.51964146 5.81882896 -11.9375 1.75 C-7.88006452 -0.6671956 -4.60552309 -1.01973469 0 0 Z M-10.375 3.6875 C-12.13434402 6.19118187 -12.66466723 7.98200506 -13 11 C-12.34 11 -11.68 11 -11 11 C-11 10.34 -11 9.68 -11 9 C-9.9275 8.855625 -8.855 8.71125 -7.75 8.5625 C-5.08337051 8.16250558 -2.58600271 7.72408076 0 7 C0.99 8.98 1.98 10.96 3 13 C3.33 13 3.66 13 4 13 C3.71574109 9.30463414 3.4523486 6.6785229 1.375 3.5625 C-2.68991454 0.88821412 -6.39909004 0.86251134 -10.375 3.6875 Z M-10 11 C-10 12.32 -10 13.64 -10 15 C-11.32 15.33 -12.64 15.66 -14 16 C-13.34 16 -12.68 16 -12 16 C-11.9175 16.928125 -11.835 17.85625 -11.75 18.8125 C-11.25418045 21.99209832 -11.25418045 21.99209832 -9.375 23.9375 C-5.88680246 25.49800943 -3.63567102 24.99154664 0 24 C2.04029596 22.30835778 2.04029596 22.30835778 3 20 C3 18.68 3 17.36 3 16 C3.66 15.67 4.32 15.34 5 15 C4.01 14.67 3.02 14.34 2 14 C0.98812105 12.34051852 -0.0126546 10.67419438 -1 9 C-4.15332957 9 -6.99457031 10.10950231 -10 11 Z M-7 27 C-7 27.99 -7 28.98 -7 30 C-6.01 30.33 -5.02 30.66 -4 31 C-3.67 30.01 -3.34 29.02 -3 28 C-2.34 27.67 -1.68 27.34 -1 27 C-2.98 27 -4.96 27 -7 27 Z M-1 30 C-1.07271741 32.35313555 -1.08370868 34.70833668 -1.0625 37.0625 C-1.041875 39.351875 -1.02125 41.64125 -1 44 C7.58 44 16.16 44 25 44 C25 39.05 25 34.1 25 29 C20.85412418 28.9731755 16.70841962 28.95324685 12.5625 28.9375 C11.37849609 28.92912109 10.19449219 28.92074219 8.97460938 28.91210938 C7.84990234 28.90888672 6.72519531 28.90566406 5.56640625 28.90234375 C4.52427979 28.89710693 3.48215332 28.89187012 2.40844727 28.88647461 C0.04871253 28.72694444 0.04871253 28.72694444 -1 30 Z M-11 29 C-10.67 32.3 -10.34 35.6 -10 39 C-10.66 39 -11.32 39 -12 39 C-12 36.03 -12 33.06 -12 30 C-13.32 30.33 -14.64 30.66 -16 31 C-15.67 35.62 -15.34 40.24 -15 45 C-13.02 45 -11.04 45 -9 45 C-9 39.72 -9 34.44 -9 29 C-9.66 29 -10.32 29 -11 29 Z M-7 32 C-7 36.29 -7 40.58 -7 45 C-5.68 45 -4.36 45 -3 45 C-3 41.04 -3 37.08 -3 33 C-4.32 32.67 -5.64 32.34 -7 32 Z M-19 33 C-19 36.96 -19 40.92 -19 45 C-18.34 45 -17.68 45 -17 45 C-16.94577053 43.5629191 -16.90710277 42.12524538 -16.875 40.6875 C-16.84019531 39.48673828 -16.84019531 39.48673828 -16.8046875 38.26171875 C-16.84182678 35.71611424 -16.84182678 35.71611424 -19 33 Z " fill="#FFFFFF" transform="translate(22,1)"/>
<path d="M0 0 C6.27 0 12.54 0 19 0 C19 4.29 19 8.58 19 13 C16.75504292 14.12247854 15.11556845 14.26831921 12.625 14.5 C9.6537225 14.77824672 6.88012934 15.21092347 4 16 C4 15.34 4 14.68 4 14 C2.68 13.67 1.36 13.34 0 13 C0 8.71 0 4.42 0 0 Z M2 2 C2 2.33 2 2.66 2 3 C6.95 3 11.9 3 17 3 C17 2.67 17 2.34 17 2 C12.05 2 7.1 2 2 2 Z M2 4 C2 4.33 2 4.66 2 5 C6.95 5 11.9 5 17 5 C17 4.67 17 4.34 17 4 C12.05 4 7.1 4 2 4 Z M2 9 C2 9.99 2 10.98 2 12 C6.95 12 11.9 12 17 12 C17 11.67 17 11.34 17 11 C12.38 11 7.76 11 3 11 C2.67 10.34 2.34 9.68 2 9 Z " fill="#FFFFFF" transform="translate(30,10)"/>
<path d="M0 0 C-0.33 1.65 -0.66 3.3 -1 5 C-3.25 5.6875 -3.25 5.6875 -6 6 C-8.3125 4.5625 -8.3125 4.5625 -10 3 C-9.1875 1.0625 -9.1875 1.0625 -8 -1 C-4.37673261 -2.2077558 -3.35853631 -1.54311128 0 0 Z M-7 1 C-6 3 -6 3 -6 3 Z M-4 2 C-3 4 -3 4 -3 4 Z " fill="#FFFFFF" transform="translate(39,36)"/>
</svg>
