 <svg version="1.0" xmlns="http://www.w3.org/2000/svg"  width="300.000000pt" height="300.000000pt" viewBox="0 0 300.000000 300.000000"  preserveAspectRatio="xMidYMid meet">  <g transform="translate(0.000000,300.000000) scale(0.100000,-0.100000)" fill="#000000" stroke="none"> <path d="M575 1826 c-60 -19 -101 -43 -124 -72 -26 -34 -26 -37 3 -69 l24 -26 -58 -127 c-74 -160 -77 -171 -50 -205 12 -15 27 -27 34 -27 18 0 51 39 66 80 19 51 26 57 78 70 26 6 85 29 131 51 46 21 86 38 87 36 2 -2 -3 -35 -11 -73 -20 -92 -19 -127 3 -147 38 -35 65 -15 123 88 36 66 114 155 135 155 17 0 74 49 74 64 0 23 -36 46 -71 46 -41 0 -107 -29 -133 -59 -11 -11 -28 -21 -38 -21 -19 0 -19 1 2 30 40 56 44 85 21 133 -31 64 -78 87 -177 86 -44 0 -97 -6 -119 -13z m196 -26 c9 0 31 -13 48 -29 72 -67 18 -153 -143 -231 -47 -23 -113 -47 -145 -53 -55 -10 -60 -14 -79 -52 -10 -22 -23 -55 -27 -73 -7 -36 -28 -39 -33 -4 -2 11 35 100 82 196 50 105 80 178 74 182 -5 4 -23 -3 -39 -15 -30 -23 -49 -27 -49 -11 0 20 45 50 104 69 74 24 110 30 156 25 19 -2 42 -4 51 -4z m286 -176 c2 -7 -12 -15 -33 -19 -51 -9 -128 -89 -184 -192 -43 -79 -76 -109 -66 -60 40 194 48 215 68 185 11 -14 16 -11 51 28 50 56 152 93 164 58z"/> <path d="M639 1757 c-24 -16 -49 -51 -86 -122 -29 -55 -52 -106 -53 -113 -1 -30 170 31 260 93 46 32 74 79 66 110 -14 55 -125 74 -187 32z m135 -33 c29 -28 -15 -75 -121 -128 -57 -29 -83 -33 -83 -13 0 22 58 114 86 136 32 25 96 28 118 5z"/> <path d="M2010 1813 c-17 -16 -81 -113 -144 -218 -62 -104 -118 -191 -125 -193 -26 -9 -9 70 34 164 51 110 55 141 21 173 -33 31 -54 16 -102 -70 -38 -66 -39 -67 -88 -73 -102 -14 -183 -75 -208 -158 -10 -35 -30 -49 -42 -30 -3 5 6 40 19 77 21 63 22 71 9 97 -20 39 -50 36 -96 -9 -21 -20 -39 -35 -40 -32 -2 2 -10 18 -18 34 -23 45 -54 44 -96 -2 -42 -46 -94 -147 -94 -182 0 -28 24 -63 54 -79 25 -13 69 0 114 34 l35 27 21 -24 c49 -57 102 -74 141 -45 12 8 33 12 56 9 26 -4 54 2 98 22 l62 28 27 -25 c39 -37 70 -50 95 -42 12 4 34 7 49 5 21 -2 42 13 102 69 75 72 96 79 96 36 0 -13 10 -38 23 -57 21 -30 28 -34 69 -34 25 0 50 -3 54 -7 18 -19 82 -7 120 21 65 47 214 225 214 255 0 18 -33 46 -55 46 -9 0 -57 -38 -104 -85 -48 -47 -90 -85 -94 -85 -4 0 -7 16 -7 36 0 42 -13 70 -40 84 -17 9 -25 6 -48 -20 l-28 -30 -24 25 c-13 14 -31 25 -41 25 -34 0 -30 20 21 98 53 84 61 119 32 145 -25 23 -37 21 -72 -10z m60 -18 c0 -8 -36 -70 -79 -139 -83 -130 -115 -186 -109 -191 2 -2 34 17 71 42 65 45 67 46 87 28 16 -14 20 -31 20 -80 0 -38 5 -68 15 -81 18 -24 19 -34 2 -34 -28 0 -46 36 -53 103 -5 45 -11 67 -20 67 -16 0 -65 -40 -151 -124 -85 -81 -99 -67 -40 40 62 112 184 313 213 352 27 34 44 41 44 17z m-282 -91 c1 -11 -20 -66 -49 -124 -64 -130 -68 -180 -19 -221 33 -28 30 -42 -6 -29 -27 11 -64 57 -64 81 0 26 -8 24 -64 -16 -98 -70 -156 -68 -156 4 0 49 44 111 96 137 24 11 61 19 97 19 l57 0 42 88 c40 84 60 102 66 61z m567 -219 c-123 -150 -195 -187 -225 -115 -10 23 -9 45 1 107 18 103 35 93 32 -19 -2 -75 1 -88 14 -88 9 0 70 55 136 123 69 70 121 117 124 110 3 -7 -34 -60 -82 -118z m-1153 70 c-2 -10 -21 -44 -41 -74 -21 -31 -41 -66 -45 -78 -6 -19 -4 -23 15 -23 16 0 53 31 120 100 53 55 99 100 103 100 13 0 5 -41 -19 -92 -29 -62 -31 -85 -9 -117 14 -19 22 -22 50 -16 38 7 46 -7 12 -22 -48 -21 -108 27 -108 87 0 29 -12 25 -70 -24 -57 -49 -94 -63 -116 -45 -29 24 -9 88 58 187 29 43 56 52 50 17z"/> <path d="M1543 1510 c-25 -11 -51 -33 -63 -52 -19 -32 -26 -78 -14 -91 22 -21 192 116 181 146 -9 23 -51 21 -104 -3z"/> <path d="M2547 1672 c-22 -24 -21 -45 1 -65 24 -22 45 -21 65 1 22 24 21 45 -1 65 -24 22 -45 21 -65 -1z m48 -32 c0 -22 -29 -18 -33 3 -3 14 1 18 15 15 10 -2 18 -10 18 -18z"/> <path d="M2513 1558 c-27 -30 -56 -89 -79 -161 l-18 -58 27 -26 27 -27 29 28 c34 33 81 132 88 187 4 29 1 45 -12 59 -23 26 -37 25 -62 -2z m44 -36 c-17 -82 -81 -212 -98 -195 -9 9 31 126 66 193 20 38 39 40 32 2z"/> </g> </svg> 