<?xml version="1.0" encoding="UTF-8"?>
<svg version="1.1" xmlns="http://www.w3.org/2000/svg" width="30" height="30">
<path d="M0 0 C5.94 0 11.88 0 18 0 C17.67 0.66 17.34 1.32 17 2 C12.05 2 7.1 2 2 2 C2 5.63 2 9.26 2 13 C8.6 13 15.2 13 22 13 C22 10.36 22 7.72 22 5 C22.66 4.67 23.32 4.34 24 4 C24 8.29 24 12.58 24 17 C16.08 17 8.16 17 0 17 C0 11.39 0 5.78 0 0 Z " fill="#FFFFFF" transform="translate(3,5)"/>
<path d="M0 0 C2.25 0.25 2.25 0.25 4 1 C2.59347226 5.47531555 0.3202902 7.76271706 -3 11 C-3.66 12.32 -4.32 13.64 -5 15 C-9.62 15 -14.24 15 -19 15 C-19 14.34 -19 13.68 -19 13 C-16.69 13 -14.38 13 -12 13 C-11.79375 12.2575 -11.5875 11.515 -11.375 10.75 C-9.5874541 7.17490821 -7.36338359 6.08529783 -4 4 C-3.29875 3.236875 -2.5975 2.47375 -1.875 1.6875 C-1.25625 1.130625 -0.6375 0.57375 0 0 Z " fill="#FFFFFF" transform="translate(26,1)"/>
<path d="M0 0 C3.96 0 7.92 0 12 0 C12 0.66 12 1.32 12 2 C8.04 2 4.08 2 0 2 C0 1.34 0 0.68 0 0 Z " fill="#FFFFFF" transform="translate(9,24)"/>
</svg>
