<?xml version="1.0" encoding="UTF-8"?>
<svg version="1.1" xmlns="http://www.w3.org/2000/svg" width="50" height="50">
<path d="M0 0 C1.29997925 0.00303635 1.29997925 0.00303635 2.6262207 0.00613403 C3.51027588 0.00517731 4.39433105 0.00422058 5.30517578 0.00323486 C7.178142 0.00255302 9.05111056 0.0044076 10.92407227 0.00857544 C13.80140458 0.01392364 16.67858078 0.0086306 19.5559082 0.00222778 C21.37101272 0.00288856 23.18611713 0.00416972 25.0012207 0.00613403 C25.86787354 0.0041098 26.73452637 0.00208557 27.62744141 0 C33.69877061 0.02399644 33.69877061 0.02399644 34.8137207 1.13894653 C34.90130073 3.13859635 34.92068647 5.14130763 34.91137695 7.14285278 C34.9081543 8.35779419 34.90493164 9.5727356 34.90161133 10.82449341 C34.88904297 12.74358521 34.88904297 12.74358521 34.8762207 14.70144653 C34.87170898 15.98470825 34.86719727 17.26796997 34.86254883 18.59011841 C34.85071616 21.77310676 34.83423139 24.95600416 34.8137207 28.13894653 C35.8037207 28.13894653 36.7937207 28.13894653 37.8137207 28.13894653 C36.9387207 33.01394653 36.9387207 33.01394653 35.8137207 34.13894653 C34.44312478 34.2420669 33.06732412 34.27743606 31.69287109 34.28421021 C30.81848892 34.29059006 29.94410675 34.29696991 29.04322815 34.30354309 C27.61671181 34.30521233 27.61671181 34.30521233 26.16137695 34.30691528 C24.70567543 34.31190788 24.70567543 34.31190788 23.2205658 34.31700134 C21.1634875 34.32207483 19.10640095 34.32440954 17.04931641 34.32424927 C13.89317326 34.32643479 10.73738 34.34458345 7.58129883 34.36355591 C5.5871594 34.36648987 3.59301831 34.36847465 1.59887695 34.36941528 C0.64989029 34.3766008 -0.29909637 34.38378632 -1.27684021 34.39118958 C-2.15437454 34.38811295 -3.03190887 34.38503632 -3.93603516 34.38186646 C-4.710233 34.38329147 -5.48443085 34.38471649 -6.28208923 34.38618469 C-8.1862793 34.13894653 -8.1862793 34.13894653 -10.1862793 32.13894653 C-10.1862793 30.81894653 -10.1862793 29.49894653 -10.1862793 28.13894653 C-9.1962793 28.13894653 -8.2062793 28.13894653 -7.1862793 28.13894653 C-7.19151611 27.32627319 -7.19675293 26.51359985 -7.20214844 25.67630005 C-7.22284924 22.01802331 -7.23591732 18.35975886 -7.2487793 14.70144653 C-7.26134766 12.78235474 -7.26134766 12.78235474 -7.27416992 10.82449341 C-7.27739258 9.609552 -7.28061523 8.3946106 -7.28393555 7.14285278 C-7.28917236 6.01693726 -7.29440918 4.89102173 -7.29980469 3.73098755 C-7.08285501 -1.22246344 -4.29696425 0.01698341 0 0 Z M-5.1862793 4.13894653 C-5.49679771 6.43285084 -5.49679771 6.43285084 -5.4519043 9.07644653 C-5.45448242 10.05355591 -5.45706055 11.03066528 -5.4597168 12.03738403 C-5.45198242 13.06089966 -5.44424805 14.08441528 -5.4362793 15.13894653 C-5.44401367 16.16246216 -5.45174805 17.18597778 -5.4597168 18.24050903 C-5.45713867 19.21761841 -5.45456055 20.19472778 -5.4519043 21.20144653 C-5.44964844 22.0999231 -5.44739258 22.99839966 -5.44506836 23.92410278 C-5.39436872 26.34436818 -5.39436872 26.34436818 -3.1862793 28.13894653 C-0.62877477 28.33851623 1.81810211 28.4188148 4.3762207 28.40457153 C5.49685913 28.40744171 5.49685913 28.40744171 6.64013672 28.41036987 C8.22046241 28.41173151 9.80079929 28.40803653 11.38110352 28.39968872 C13.80420992 28.38898853 16.22657494 28.39958432 18.6496582 28.41238403 C20.18351401 28.41106243 21.71736936 28.40850003 23.2512207 28.40457153 C24.34188843 28.41064423 24.34188843 28.41064423 25.45458984 28.4168396 C29.58841703 28.50626155 29.58841703 28.50626155 32.8137207 26.13894653 C33.12423911 23.84504222 33.12423911 23.84504222 33.0793457 21.20144653 C33.08192383 20.22433716 33.08450195 19.24722778 33.0871582 18.24050903 C33.07555664 16.7052356 33.07555664 16.7052356 33.0637207 15.13894653 C33.07145508 14.11543091 33.07918945 13.09191528 33.0871582 12.03738403 C33.08329102 10.57171997 33.08329102 10.57171997 33.0793457 9.07644653 C33.07708984 8.17796997 33.07483398 7.27949341 33.07250977 6.35379028 C33.02181012 3.93352488 33.02181012 3.93352488 30.8137207 2.13894653 C28.25621618 1.93937683 25.8093393 1.85907827 23.2512207 1.87332153 C22.50412842 1.87140808 21.75703613 1.86949463 20.98730469 1.86752319 C19.406979 1.86616156 17.82664212 1.86985654 16.24633789 1.87820435 C13.82323148 1.88890453 11.40086647 1.87830874 8.9777832 1.86550903 C7.4439274 1.86683063 5.91007205 1.86939303 4.3762207 1.87332153 C3.64910889 1.86927307 2.92199707 1.86522461 2.17285156 1.86105347 C-1.96097563 1.77163151 -1.96097563 1.77163151 -5.1862793 4.13894653 Z M-7.1862793 30.13894653 C-4.58322038 32.74200545 -2.76349391 32.38719631 0.78271484 32.4168396 C1.59732178 32.41279114 2.41192871 32.40874268 3.2512207 32.40457153 C4.5050354 32.40744171 4.5050354 32.40744171 5.78417969 32.41036987 C7.55281881 32.41173189 9.32146793 32.4080343 11.09008789 32.39968872 C13.80288064 32.38898929 16.51501114 32.39958329 19.2277832 32.41238403 C20.9439305 32.41106244 22.66007739 32.40850005 24.3762207 32.40457153 C25.5981311 32.41064423 25.5981311 32.41064423 26.84472656 32.4168396 C31.30079855 32.56460088 31.30079855 32.56460088 34.8137207 30.13894653 C20.9537207 30.13894653 7.0937207 30.13894653 -7.1862793 30.13894653 Z " fill="#FFFFFF" transform="translate(11.186279296875,7.861053466796875)"/>
<path d="M0 0 C0.99 0 1.98 0 3 0 C2.40984815 5.50808397 1.43336231 10.64878069 0 16 C-0.99 16 -1.98 16 -3 16 C-2.40984815 10.49191603 -1.43336231 5.35121931 0 0 Z " fill="#FFFFFF" transform="translate(25,15)"/>
<path d="M0 0 C0.99 0 1.98 0 3 0 C4.6875 2 4.6875 2 6 4 C5 6 4 8 3 10 C2.01 10 1.02 10 0 10 C0.185625 9.0925 0.37125 8.185 0.5625 7.25 C0.95734621 4.31685676 0.94691572 2.7355343 0 0 Z " fill="#FFFFFF" transform="translate(31,18)"/>
<path d="M0 0 C0.99 0 1.98 0 3 0 C2.814375 0.9075 2.62875 1.815 2.4375 2.75 C2.04265379 5.68314324 2.05308428 7.2644657 3 10 C2.01 10 1.02 10 0 10 C-1.6875 8 -1.6875 8 -3 6 C-2 4 -1 2 0 0 Z " fill="#FFFFFF" transform="translate(16,18)"/>
</svg>
